<svg viewBox="0 0 1200 300" xmlns="http://www.w3.org/2000/svg" role="img" aria-label="Devansh Joshi">
  <defs>
    <linearGradient id="acc" x1="0" y1="0" x2="1" y2="0">
      <stop offset="0" stop-color="#d89a2e"/>
      <stop offset="1" stop-color="#f5c451"/>
    </linearGradient>
    <filter id="glow" x="-20%" y="-40%" width="140%" height="180%">
      <feGaussianBlur stdDeviation="5" result="b"/>
      <feMerge><feMergeNode in="b"/></feMerge>
    </filter>
    <clipPath id="round"><rect width="1200" height="300" rx="18"/></clipPath>
    <style>
      .name{font-family:'Arial Black','Arial Bold',Gadget,Helvetica,sans-serif;font-weight:900;letter-spacing:.5px;}
      .tag{font-family:'Segoe UI','Helvetica Neue',Arial,sans-serif;font-weight:600;fill:#cdbb98;letter-spacing:.5px;}
      .meta{font-family:'Segoe UI',Arial,sans-serif;font-weight:600;fill:#998a6a;letter-spacing:2px;}
      .lbl{font-family:'SF Mono','Consolas',monospace;fill:#d89a2e;letter-spacing:.5px;}
      .shim{animation:sh 4.5s ease-in-out infinite;}
      .fu{animation:fu .9s ease-out both;}
      .fu2{animation:fu .9s ease-out .2s both;}
      .fu3{animation:fu .9s ease-out .4s both;}
      .ln{animation:gr .9s ease-out .35s both;transform-box:fill-box;transform-origin:left center;}
      @keyframes sh{0%,100%{opacity:.45}50%{opacity:1}}
      @keyframes fu{from{opacity:0;transform:translateY(12px)}to{opacity:1;transform:translateY(0)}}
      @keyframes gr{from{transform:scaleX(0)}to{transform:scaleX(1)}}
    </style>
  </defs>
  <g clip-path="url(#round)">
    <rect width="1200" height="300" fill="#1a1510"/>
    <text class="lbl fu3" x="630" y="78" font-size="13">contribution activity</text>
    <rect class="shim" x="630" y="92" width="13" height="13" rx="3" fill="#5e3f15" style="animation-delay:-0.00s"/>
    <rect class="shim" x="647" y="92" width="13" height="13" rx="3" fill="#5e3f15" style="animation-delay:-0.22s"/>
    <rect class="shim" x="664" y="92" width="13" height="13" rx="3" fill="#f5c451" style="animation-delay:-0.44s"/>
    <rect class="shim" x="681" y="92" width="13" height="13" rx="3" fill="#5e3f15" style="animation-delay:-0.66s"/>
    <rect class="shim" x="698" y="92" width="13" height="13" rx="3" fill="#5e3f15" style="animation-delay:-0.88s"/>
    <rect class="shim" x="715" y="92" width="13" height="13" rx="3" fill="#9c6a1a" style="animation-delay:-1.10s"/>
    <rect x="732" y="92" width="13" height="13" rx="3" fill="#2a2017"/>
    <rect class="shim" x="749" y="92" width="13" height="13" rx="3" fill="#5e3f15" style="animation-delay:-1.54s"/>
    <rect class="shim" x="766" y="92" width="13" height="13" rx="3" fill="#9c6a1a" style="animation-delay:-1.76s"/>
    <rect class="shim" x="783" y="92" width="13" height="13" rx="3" fill="#d89a2e" style="animation-delay:-1.98s"/>
    <rect x="800" y="92" width="13" height="13" rx="3" fill="#2a2017"/>
    <rect x="817" y="92" width="13" height="13" rx="3" fill="#2a2017"/>
    <rect x="834" y="92" width="13" height="13" rx="3" fill="#2a2017"/>
    <rect class="shim" x="851" y="92" width="13" height="13" rx="3" fill="#d89a2e" style="animation-delay:-2.86s"/>
    <rect class="shim" x="868" y="92" width="13" height="13" rx="3" fill="#9c6a1a" style="animation-delay:-0.00s"/>
    <rect x="885" y="92" width="13" height="13" rx="3" fill="#2a2017"/>
    <rect class="shim" x="902" y="92" width="13" height="13" rx="3" fill="#f5c451" style="animation-delay:-0.44s"/>
    <rect class="shim" x="919" y="92" width="13" height="13" rx="3" fill="#f5c451" style="animation-delay:-0.66s"/>
    <rect class="shim" x="936" y="92" width="13" height="13" rx="3" fill="#9c6a1a" style="animation-delay:-0.88s"/>
    <rect class="shim" x="953" y="92" width="13" height="13" rx="3" fill="#9c6a1a" style="animation-delay:-1.10s"/>
    <rect x="970" y="92" width="13" height="13" rx="3" fill="#2a2017"/>
    <rect x="987" y="92" width="13" height="13" rx="3" fill="#2a2017"/>
    <rect class="shim" x="1004" y="92" width="13" height="13" rx="3" fill="#5e3f15" style="animation-delay:-1.76s"/>
    <rect x="1021" y="92" width="13" height="13" rx="3" fill="#2a2017"/>
    <rect x="1038" y="92" width="13" height="13" rx="3" fill="#2a2017"/>
    <rect x="1055" y="92" width="13" height="13" rx="3" fill="#2a2017"/>
    <rect x="1072" y="92" width="13" height="13" rx="3" fill="#2a2017"/>
    <rect class="shim" x="1089" y="92" width="13" height="13" rx="3" fill="#5e3f15" style="animation-delay:-2.86s"/>
    <rect class="shim" x="1106" y="92" width="13" height="13" rx="3" fill="#5e3f15" style="animation-delay:-0.00s"/>
    <rect class="shim" x="1123" y="92" width="13" height="13" rx="3" fill="#d89a2e" style="animation-delay:-0.22s"/>
    <rect class="shim" x="630" y="109" width="13" height="13" rx="3" fill="#5e3f15" style="animation-delay:-0.22s"/>
    <rect class="shim" x="647" y="109" width="13" height="13" rx="3" fill="#9c6a1a" style="animation-delay:-0.44s"/>
    <rect class="shim" x="664" y="109" width="13" height="13" rx="3" fill="#5e3f15" style="animation-delay:-0.66s"/>
    <rect class="shim" x="681" y="109" width="13" height="13" rx="3" fill="#9c6a1a" style="animation-delay:-0.88s"/>
    <rect class="shim" x="698" y="109" width="13" height="13" rx="3" fill="#5e3f15" style="animation-delay:-1.10s"/>
    <rect x="715" y="109" width="13" height="13" rx="3" fill="#2a2017"/>
    <rect class="shim" x="732" y="109" width="13" height="13" rx="3" fill="#f5c451" style="animation-delay:-1.54s"/>
    <rect class="shim" x="749" y="109" width="13" height="13" rx="3" fill="#f5c451" style="animation-delay:-1.76s"/>
    <rect class="shim" x="766" y="109" width="13" height="13" rx="3" fill="#d89a2e" style="animation-delay:-1.98s"/>
    <rect class="shim" x="783" y="109" width="13" height="13" rx="3" fill="#9c6a1a" style="animation-delay:-2.20s"/>
    <rect x="800" y="109" width="13" height="13" rx="3" fill="#2a2017"/>
    <rect x="817" y="109" width="13" height="13" rx="3" fill="#2a2017"/>
    <rect x="834" y="109" width="13" height="13" rx="3" fill="#2a2017"/>
    <rect x="851" y="109" width="13" height="13" rx="3" fill="#2a2017"/>
    <rect class="shim" x="868" y="109" width="13" height="13" rx="3" fill="#9c6a1a" style="animation-delay:-0.22s"/>
    <rect class="shim" x="885" y="109" width="13" height="13" rx="3" fill="#5e3f15" style="animation-delay:-0.44s"/>
    <rect class="shim" x="902" y="109" width="13" height="13" rx="3" fill="#d89a2e" style="animation-delay:-0.66s"/>
    <rect class="shim" x="919" y="109" width="13" height="13" rx="3" fill="#5e3f15" style="animation-delay:-0.88s"/>
    <rect class="shim" x="936" y="109" width="13" height="13" rx="3" fill="#f5c451" style="animation-delay:-1.10s"/>
    <rect class="shim" x="953" y="109" width="13" height="13" rx="3" fill="#d89a2e" style="animation-delay:-1.32s"/>
    <rect x="970" y="109" width="13" height="13" rx="3" fill="#2a2017"/>
    <rect x="987" y="109" width="13" height="13" rx="3" fill="#2a2017"/>
    <rect class="shim" x="1004" y="109" width="13" height="13" rx="3" fill="#f5c451" style="animation-delay:-1.98s"/>
    <rect class="shim" x="1021" y="109" width="13" height="13" rx="3" fill="#5e3f15" style="animation-delay:-2.20s"/>
    <rect class="shim" x="1038" y="109" width="13" height="13" rx="3" fill="#f5c451" style="animation-delay:-2.42s"/>
    <rect class="shim" x="1055" y="109" width="13" height="13" rx="3" fill="#5e3f15" style="animation-delay:-2.64s"/>
    <rect x="1072" y="109" width="13" height="13" rx="3" fill="#2a2017"/>
    <rect class="shim" x="1089" y="109" width="13" height="13" rx="3" fill="#9c6a1a" style="animation-delay:-0.00s"/>
    <rect class="shim" x="1106" y="109" width="13" height="13" rx="3" fill="#d89a2e" style="animation-delay:-0.22s"/>
    <rect x="1123" y="109" width="13" height="13" rx="3" fill="#2a2017"/>
    <rect x="630" y="126" width="13" height="13" rx="3" fill="#2a2017"/>
    <rect x="647" y="126" width="13" height="13" rx="3" fill="#2a2017"/>
    <rect class="shim" x="664" y="126" width="13" height="13" rx="3" fill="#f5c451" style="animation-delay:-0.88s"/>
    <rect class="shim" x="681" y="126" width="13" height="13" rx="3" fill="#9c6a1a" style="animation-delay:-1.10s"/>
    <rect x="698" y="126" width="13" height="13" rx="3" fill="#2a2017"/>
    <rect x="715" y="126" width="13" height="13" rx="3" fill="#2a2017"/>
    <rect x="732" y="126" width="13" height="13" rx="3" fill="#2a2017"/>
    <rect x="749" y="126" width="13" height="13" rx="3" fill="#2a2017"/>
    <rect class="shim" x="766" y="126" width="13" height="13" rx="3" fill="#d89a2e" style="animation-delay:-2.20s"/>
    <rect x="783" y="126" width="13" height="13" rx="3" fill="#2a2017"/>
    <rect class="shim" x="800" y="126" width="13" height="13" rx="3" fill="#5e3f15" style="animation-delay:-2.64s"/>
    <rect class="shim" x="817" y="126" width="13" height="13" rx="3" fill="#5e3f15" style="animation-delay:-2.86s"/>
    <rect x="834" y="126" width="13" height="13" rx="3" fill="#2a2017"/>
    <rect class="shim" x="851" y="126" width="13" height="13" rx="3" fill="#9c6a1a" style="animation-delay:-0.22s"/>
    <rect x="868" y="126" width="13" height="13" rx="3" fill="#2a2017"/>
    <rect class="shim" x="885" y="126" width="13" height="13" rx="3" fill="#9c6a1a" style="animation-delay:-0.66s"/>
    <rect x="902" y="126" width="13" height="13" rx="3" fill="#2a2017"/>
    <rect class="shim" x="919" y="126" width="13" height="13" rx="3" fill="#5e3f15" style="animation-delay:-1.10s"/>
    <rect x="936" y="126" width="13" height="13" rx="3" fill="#2a2017"/>
    <rect x="953" y="126" width="13" height="13" rx="3" fill="#2a2017"/>
    <rect class="shim" x="970" y="126" width="13" height="13" rx="3" fill="#f5c451" style="animation-delay:-1.76s"/>
    <rect class="shim" x="987" y="126" width="13" height="13" rx="3" fill="#d89a2e" style="animation-delay:-1.98s"/>
    <rect x="1004" y="126" width="13" height="13" rx="3" fill="#2a2017"/>
    <rect class="shim" x="1021" y="126" width="13" height="13" rx="3" fill="#d89a2e" style="animation-delay:-2.42s"/>
    <rect x="1038" y="126" width="13" height="13" rx="3" fill="#2a2017"/>
    <rect class="shim" x="1055" y="126" width="13" height="13" rx="3" fill="#5e3f15" style="animation-delay:-2.86s"/>
    <rect class="shim" x="1072" y="126" width="13" height="13" rx="3" fill="#d89a2e" style="animation-delay:-0.00s"/>
    <rect class="shim" x="1089" y="126" width="13" height="13" rx="3" fill="#9c6a1a" style="animation-delay:-0.22s"/>
    <rect x="1106" y="126" width="13" height="13" rx="3" fill="#2a2017"/>
    <rect class="shim" x="1123" y="126" width="13" height="13" rx="3" fill="#f5c451" style="animation-delay:-0.66s"/>
    <rect x="630" y="143" width="13" height="13" rx="3" fill="#2a2017"/>
    <rect x="647" y="143" width="13" height="13" rx="3" fill="#2a2017"/>
    <rect class="shim" x="664" y="143" width="13" height="13" rx="3" fill="#d89a2e" style="animation-delay:-1.10s"/>
    <rect x="681" y="143" width="13" height="13" rx="3" fill="#2a2017"/>
    <rect x="698" y="143" width="13" height="13" rx="3" fill="#2a2017"/>
    <rect x="715" y="143" width="13" height="13" rx="3" fill="#2a2017"/>
    <rect x="732" y="143" width="13" height="13" rx="3" fill="#2a2017"/>
    <rect class="shim" x="749" y="143" width="13" height="13" rx="3" fill="#9c6a1a" style="animation-delay:-2.20s"/>
    <rect x="766" y="143" width="13" height="13" rx="3" fill="#2a2017"/>
    <rect class="shim" x="783" y="143" width="13" height="13" rx="3" fill="#9c6a1a" style="animation-delay:-2.64s"/>
    <rect class="shim" x="800" y="143" width="13" height="13" rx="3" fill="#5e3f15" style="animation-delay:-2.86s"/>
    <rect class="shim" x="817" y="143" width="13" height="13" rx="3" fill="#5e3f15" style="animation-delay:-0.00s"/>
    <rect class="shim" x="834" y="143" width="13" height="13" rx="3" fill="#f5c451" style="animation-delay:-0.22s"/>
    <rect class="shim" x="851" y="143" width="13" height="13" rx="3" fill="#5e3f15" style="animation-delay:-0.44s"/>
    <rect class="shim" x="868" y="143" width="13" height="13" rx="3" fill="#5e3f15" style="animation-delay:-0.66s"/>
    <rect class="shim" x="885" y="143" width="13" height="13" rx="3" fill="#d89a2e" style="animation-delay:-0.88s"/>
    <rect x="902" y="143" width="13" height="13" rx="3" fill="#2a2017"/>
    <rect x="919" y="143" width="13" height="13" rx="3" fill="#2a2017"/>
    <rect class="shim" x="936" y="143" width="13" height="13" rx="3" fill="#d89a2e" style="animation-delay:-1.54s"/>
    <rect class="shim" x="953" y="143" width="13" height="13" rx="3" fill="#d89a2e" style="animation-delay:-1.76s"/>
    <rect x="970" y="143" width="13" height="13" rx="3" fill="#2a2017"/>
    <rect x="987" y="143" width="13" height="13" rx="3" fill="#2a2017"/>
    <rect class="shim" x="1004" y="143" width="13" height="13" rx="3" fill="#9c6a1a" style="animation-delay:-2.42s"/>
    <rect class="shim" x="1021" y="143" width="13" height="13" rx="3" fill="#f5c451" style="animation-delay:-2.64s"/>
    <rect x="1038" y="143" width="13" height="13" rx="3" fill="#2a2017"/>
    <rect class="shim" x="1055" y="143" width="13" height="13" rx="3" fill="#f5c451" style="animation-delay:-0.00s"/>
    <rect class="shim" x="1072" y="143" width="13" height="13" rx="3" fill="#d89a2e" style="animation-delay:-0.22s"/>
    <rect class="shim" x="1089" y="143" width="13" height="13" rx="3" fill="#9c6a1a" style="animation-delay:-0.44s"/>
    <rect class="shim" x="1106" y="143" width="13" height="13" rx="3" fill="#5e3f15" style="animation-delay:-0.66s"/>
    <rect x="1123" y="143" width="13" height="13" rx="3" fill="#2a2017"/>
    <rect x="630" y="160" width="13" height="13" rx="3" fill="#2a2017"/>
    <rect class="shim" x="647" y="160" width="13" height="13" rx="3" fill="#f5c451" style="animation-delay:-1.10s"/>
    <rect x="664" y="160" width="13" height="13" rx="3" fill="#2a2017"/>
    <rect class="shim" x="681" y="160" width="13" height="13" rx="3" fill="#9c6a1a" style="animation-delay:-1.54s"/>
    <rect x="698" y="160" width="13" height="13" rx="3" fill="#2a2017"/>
    <rect class="shim" x="715" y="160" width="13" height="13" rx="3" fill="#d89a2e" style="animation-delay:-1.98s"/>
    <rect class="shim" x="732" y="160" width="13" height="13" rx="3" fill="#9c6a1a" style="animation-delay:-2.20s"/>
    <rect x="749" y="160" width="13" height="13" rx="3" fill="#2a2017"/>
    <rect x="766" y="160" width="13" height="13" rx="3" fill="#2a2017"/>
    <rect class="shim" x="783" y="160" width="13" height="13" rx="3" fill="#9c6a1a" style="animation-delay:-2.86s"/>
    <rect x="800" y="160" width="13" height="13" rx="3" fill="#2a2017"/>
    <rect x="817" y="160" width="13" height="13" rx="3" fill="#2a2017"/>
    <rect class="shim" x="834" y="160" width="13" height="13" rx="3" fill="#5e3f15" style="animation-delay:-0.44s"/>
    <rect class="shim" x="851" y="160" width="13" height="13" rx="3" fill="#d89a2e" style="animation-delay:-0.66s"/>
    <rect class="shim" x="868" y="160" width="13" height="13" rx="3" fill="#9c6a1a" style="animation-delay:-0.88s"/>
    <rect x="885" y="160" width="13" height="13" rx="3" fill="#2a2017"/>
    <rect class="shim" x="902" y="160" width="13" height="13" rx="3" fill="#f5c451" style="animation-delay:-1.32s"/>
    <rect x="919" y="160" width="13" height="13" rx="3" fill="#2a2017"/>
    <rect x="936" y="160" width="13" height="13" rx="3" fill="#2a2017"/>
    <rect x="953" y="160" width="13" height="13" rx="3" fill="#2a2017"/>
    <rect class="shim" x="970" y="160" width="13" height="13" rx="3" fill="#5e3f15" style="animation-delay:-2.20s"/>
    <rect x="987" y="160" width="13" height="13" rx="3" fill="#2a2017"/>
    <rect x="1004" y="160" width="13" height="13" rx="3" fill="#2a2017"/>
    <rect class="shim" x="1021" y="160" width="13" height="13" rx="3" fill="#5e3f15" style="animation-delay:-2.86s"/>
    <rect class="shim" x="1038" y="160" width="13" height="13" rx="3" fill="#5e3f15" style="animation-delay:-0.00s"/>
    <rect x="1055" y="160" width="13" height="13" rx="3" fill="#2a2017"/>
    <rect class="shim" x="1072" y="160" width="13" height="13" rx="3" fill="#5e3f15" style="animation-delay:-0.44s"/>
    <rect class="shim" x="1089" y="160" width="13" height="13" rx="3" fill="#d89a2e" style="animation-delay:-0.66s"/>
    <rect class="shim" x="1106" y="160" width="13" height="13" rx="3" fill="#f5c451" style="animation-delay:-0.88s"/>
    <rect class="shim" x="1123" y="160" width="13" height="13" rx="3" fill="#9c6a1a" style="animation-delay:-1.10s"/>
    <rect class="shim" x="630" y="177" width="13" height="13" rx="3" fill="#9c6a1a" style="animation-delay:-1.10s"/>
    <rect class="shim" x="647" y="177" width="13" height="13" rx="3" fill="#9c6a1a" style="animation-delay:-1.32s"/>
    <rect x="664" y="177" width="13" height="13" rx="3" fill="#2a2017"/>
    <rect x="681" y="177" width="13" height="13" rx="3" fill="#2a2017"/>
    <rect x="698" y="177" width="13" height="13" rx="3" fill="#2a2017"/>
    <rect class="shim" x="715" y="177" width="13" height="13" rx="3" fill="#f5c451" style="animation-delay:-2.20s"/>
    <rect class="shim" x="732" y="177" width="13" height="13" rx="3" fill="#9c6a1a" style="animation-delay:-2.42s"/>
    <rect class="shim" x="749" y="177" width="13" height="13" rx="3" fill="#f5c451" style="animation-delay:-2.64s"/>
    <rect x="766" y="177" width="13" height="13" rx="3" fill="#2a2017"/>
    <rect class="shim" x="783" y="177" width="13" height="13" rx="3" fill="#9c6a1a" style="animation-delay:-0.00s"/>
    <rect class="shim" x="800" y="177" width="13" height="13" rx="3" fill="#5e3f15" style="animation-delay:-0.22s"/>
    <rect class="shim" x="817" y="177" width="13" height="13" rx="3" fill="#9c6a1a" style="animation-delay:-0.44s"/>
    <rect x="834" y="177" width="13" height="13" rx="3" fill="#2a2017"/>
    <rect class="shim" x="851" y="177" width="13" height="13" rx="3" fill="#f5c451" style="animation-delay:-0.88s"/>
    <rect x="868" y="177" width="13" height="13" rx="3" fill="#2a2017"/>
    <rect class="shim" x="885" y="177" width="13" height="13" rx="3" fill="#5e3f15" style="animation-delay:-1.32s"/>
    <rect class="shim" x="902" y="177" width="13" height="13" rx="3" fill="#9c6a1a" style="animation-delay:-1.54s"/>
    <rect class="shim" x="919" y="177" width="13" height="13" rx="3" fill="#d89a2e" style="animation-delay:-1.76s"/>
    <rect class="shim" x="936" y="177" width="13" height="13" rx="3" fill="#9c6a1a" style="animation-delay:-1.98s"/>
    <rect class="shim" x="953" y="177" width="13" height="13" rx="3" fill="#9c6a1a" style="animation-delay:-2.20s"/>
    <rect class="shim" x="970" y="177" width="13" height="13" rx="3" fill="#d89a2e" style="animation-delay:-2.42s"/>
    <rect class="shim" x="987" y="177" width="13" height="13" rx="3" fill="#f5c451" style="animation-delay:-2.64s"/>
    <rect class="shim" x="1004" y="177" width="13" height="13" rx="3" fill="#5e3f15" style="animation-delay:-2.86s"/>
    <rect class="shim" x="1021" y="177" width="13" height="13" rx="3" fill="#9c6a1a" style="animation-delay:-0.00s"/>
    <rect class="shim" x="1038" y="177" width="13" height="13" rx="3" fill="#d89a2e" style="animation-delay:-0.22s"/>
    <rect class="shim" x="1055" y="177" width="13" height="13" rx="3" fill="#d89a2e" style="animation-delay:-0.44s"/>
    <rect class="shim" x="1072" y="177" width="13" height="13" rx="3" fill="#5e3f15" style="animation-delay:-0.66s"/>
    <rect class="shim" x="1089" y="177" width="13" height="13" rx="3" fill="#d89a2e" style="animation-delay:-0.88s"/>
    <rect class="shim" x="1106" y="177" width="13" height="13" rx="3" fill="#d89a2e" style="animation-delay:-1.10s"/>
    <rect class="shim" x="1123" y="177" width="13" height="13" rx="3" fill="#5e3f15" style="animation-delay:-1.32s"/>
    <rect class="shim" x="630" y="194" width="13" height="13" rx="3" fill="#9c6a1a" style="animation-delay:-1.32s"/>
    <rect class="shim" x="647" y="194" width="13" height="13" rx="3" fill="#5e3f15" style="animation-delay:-1.54s"/>
    <rect class="shim" x="664" y="194" width="13" height="13" rx="3" fill="#9c6a1a" style="animation-delay:-1.76s"/>
    <rect class="shim" x="681" y="194" width="13" height="13" rx="3" fill="#9c6a1a" style="animation-delay:-1.98s"/>
    <rect x="698" y="194" width="13" height="13" rx="3" fill="#2a2017"/>
    <rect class="shim" x="715" y="194" width="13" height="13" rx="3" fill="#9c6a1a" style="animation-delay:-2.42s"/>
    <rect class="shim" x="732" y="194" width="13" height="13" rx="3" fill="#f5c451" style="animation-delay:-2.64s"/>
    <rect class="shim" x="749" y="194" width="13" height="13" rx="3" fill="#d89a2e" style="animation-delay:-2.86s"/>
    <rect class="shim" x="766" y="194" width="13" height="13" rx="3" fill="#9c6a1a" style="animation-delay:-0.00s"/>
    <rect class="shim" x="783" y="194" width="13" height="13" rx="3" fill="#5e3f15" style="animation-delay:-0.22s"/>
    <rect class="shim" x="800" y="194" width="13" height="13" rx="3" fill="#9c6a1a" style="animation-delay:-0.44s"/>
    <rect class="shim" x="817" y="194" width="13" height="13" rx="3" fill="#9c6a1a" style="animation-delay:-0.66s"/>
    <rect class="shim" x="834" y="194" width="13" height="13" rx="3" fill="#5e3f15" style="animation-delay:-0.88s"/>
    <rect class="shim" x="851" y="194" width="13" height="13" rx="3" fill="#d89a2e" style="animation-delay:-1.10s"/>
    <rect x="868" y="194" width="13" height="13" rx="3" fill="#2a2017"/>
    <rect class="shim" x="885" y="194" width="13" height="13" rx="3" fill="#9c6a1a" style="animation-delay:-1.54s"/>
    <rect x="902" y="194" width="13" height="13" rx="3" fill="#2a2017"/>
    <rect class="shim" x="919" y="194" width="13" height="13" rx="3" fill="#9c6a1a" style="animation-delay:-1.98s"/>
    <rect class="shim" x="936" y="194" width="13" height="13" rx="3" fill="#5e3f15" style="animation-delay:-2.20s"/>
    <rect x="953" y="194" width="13" height="13" rx="3" fill="#2a2017"/>
    <rect class="shim" x="970" y="194" width="13" height="13" rx="3" fill="#9c6a1a" style="animation-delay:-2.64s"/>
    <rect class="shim" x="987" y="194" width="13" height="13" rx="3" fill="#5e3f15" style="animation-delay:-2.86s"/>
    <rect class="shim" x="1004" y="194" width="13" height="13" rx="3" fill="#9c6a1a" style="animation-delay:-0.00s"/>
    <rect class="shim" x="1021" y="194" width="13" height="13" rx="3" fill="#f5c451" style="animation-delay:-0.22s"/>
    <rect x="1038" y="194" width="13" height="13" rx="3" fill="#2a2017"/>
    <rect x="1055" y="194" width="13" height="13" rx="3" fill="#2a2017"/>
    <rect x="1072" y="194" width="13" height="13" rx="3" fill="#2a2017"/>
    <rect class="shim" x="1089" y="194" width="13" height="13" rx="3" fill="#9c6a1a" style="animation-delay:-1.10s"/>
    <rect x="1106" y="194" width="13" height="13" rx="3" fill="#2a2017"/>
    <rect x="1123" y="194" width="13" height="13" rx="3" fill="#2a2017"/>
    <text class="name fu" x="70" y="126" font-size="54" fill="#f5c451" opacity="0.45" filter="url(#glow)">Devansh Joshi</text>
    <text class="name fu" x="70" y="126" font-size="54" fill="#f7ecd6">Devansh Joshi</text>
    <rect class="ln" x="72" y="146" width="360" height="5" rx="2.5" fill="url(#acc)"/>
    <text class="tag fu2" x="74" y="190" font-size="25">Full-Stack Engineer &#183; Founder &#183; Builder</text>
    <text class="meta fu3" x="74" y="228" font-size="15">COMPUTER SCIENCE &#183; CLASS OF 2028 &#183; BENGALURU, INDIA</text>
  </g>
</svg>
